%TF.GenerationSoftware,KiCad,Pcbnew,7.0.5*%
%TF.CreationDate,2024-12-14T15:20:15+01:00*%
%TF.ProjectId,Sensor Board,53656e73-6f72-4204-926f-6172642e6b69,rev?*%
%TF.SameCoordinates,Original*%
%TF.FileFunction,Copper,L1,Top*%
%TF.FilePolarity,Positive*%
%FSLAX46Y46*%
G04 Gerber Fmt 4.6, Leading zero omitted, Abs format (unit mm)*
G04 Created by KiCad (PCBNEW 7.0.5) date 2024-12-14 15:20:15*
%MOMM*%
%LPD*%
G01*
G04 APERTURE LIST*
G04 Aperture macros list*
%AMRoundRect*
0 Rectangle with rounded corners*
0 $1 Rounding radius*
0 $2 $3 $4 $5 $6 $7 $8 $9 X,Y pos of 4 corners*
0 Add a 4 corners polygon primitive as box body*
4,1,4,$2,$3,$4,$5,$6,$7,$8,$9,$2,$3,0*
0 Add four circle primitives for the rounded corners*
1,1,$1+$1,$2,$3*
1,1,$1+$1,$4,$5*
1,1,$1+$1,$6,$7*
1,1,$1+$1,$8,$9*
0 Add four rect primitives between the rounded corners*
20,1,$1+$1,$2,$3,$4,$5,0*
20,1,$1+$1,$4,$5,$6,$7,0*
20,1,$1+$1,$6,$7,$8,$9,0*
20,1,$1+$1,$8,$9,$2,$3,0*%
G04 Aperture macros list end*
%TA.AperFunction,SMDPad,CuDef*%
%ADD10RoundRect,0.140000X-0.170000X0.140000X-0.170000X-0.140000X0.170000X-0.140000X0.170000X0.140000X0*%
%TD*%
%TA.AperFunction,SMDPad,CuDef*%
%ADD11R,2.200000X0.600000*%
%TD*%
%TA.AperFunction,SMDPad,CuDef*%
%ADD12R,2.600000X1.800000*%
%TD*%
%TA.AperFunction,SMDPad,CuDef*%
%ADD13R,0.400000X0.600000*%
%TD*%
%TA.AperFunction,SMDPad,CuDef*%
%ADD14R,2.400000X1.500000*%
%TD*%
%TA.AperFunction,Conductor*%
%ADD15C,0.150000*%
%TD*%
G04 APERTURE END LIST*
D10*
%TO.P,C1,1*%
%TO.N,+3V3*%
X148040000Y-70510000D03*
%TO.P,C1,2*%
%TO.N,GND*%
X148040000Y-71470000D03*
%TD*%
D11*
%TO.P,J1,1*%
%TO.N,+3V3*%
X140710000Y-69490000D03*
%TO.P,J1,2*%
%TO.N,Net-(U1-SCL)*%
X140710000Y-70490000D03*
%TO.P,J1,3*%
%TO.N,Net-(U1-SDA)*%
X140710000Y-71490000D03*
%TO.P,J1,4*%
%TO.N,GND*%
X140710000Y-72490000D03*
D12*
%TO.P,J1,Z1*%
%TO.N,N/C*%
X138310000Y-66890000D03*
%TO.P,J1,Z2*%
X138310000Y-75090000D03*
%TD*%
D13*
%TO.P,U1,1,SDA*%
%TO.N,Net-(U1-SDA)*%
X144670000Y-72340000D03*
%TO.P,U1,2,GND*%
%TO.N,GND*%
X145670000Y-72340000D03*
%TO.P,U1,3*%
%TO.N,N/C*%
X146670000Y-72340000D03*
%TO.P,U1,4*%
X146670000Y-69640000D03*
%TO.P,U1,5,VDD*%
%TO.N,+3V3*%
X145670000Y-69640000D03*
%TO.P,U1,6,SCL*%
%TO.N,Net-(U1-SCL)*%
X144670000Y-69640000D03*
D14*
%TO.P,U1,7,PAD*%
%TO.N,GND*%
X145670000Y-70990000D03*
%TD*%
D15*
%TO.N,+3V3*%
X148040000Y-70510000D02*
X148040000Y-69860000D01*
X145670000Y-68540000D02*
X146720000Y-68540000D01*
X148040000Y-69860000D02*
X146720000Y-68540000D01*
X144580000Y-68550000D02*
X144580000Y-68540000D01*
X142555000Y-70135000D02*
X141910000Y-69490000D01*
X141910000Y-69490000D02*
X140710000Y-69490000D01*
X143000000Y-70130000D02*
X144580000Y-68550000D01*
X145670000Y-68540000D02*
X144580000Y-68540000D01*
X145670000Y-69640000D02*
X145670000Y-68540000D01*
X142560000Y-70130000D02*
X143000000Y-70130000D01*
X142555000Y-70135000D02*
X142560000Y-70130000D01*
%TO.N,Net-(U1-SDA)*%
X144280000Y-72340000D02*
X144670000Y-72340000D01*
X143430000Y-71490000D02*
X144280000Y-72340000D01*
X140710000Y-71490000D02*
X143430000Y-71490000D01*
%TO.N,Net-(U1-SCL)*%
X144280000Y-69640000D02*
X144670000Y-69640000D01*
X143430000Y-70490000D02*
X144280000Y-69640000D01*
X140710000Y-70490000D02*
X143430000Y-70490000D01*
%TO.N,GND*%
X141910000Y-72490000D02*
X140710000Y-72490000D01*
X145670000Y-73440000D02*
X146720000Y-73440000D01*
X142555000Y-71845000D02*
X143000000Y-71845000D01*
X141910000Y-72490000D02*
X142555000Y-71845000D01*
X148040000Y-72120000D02*
X148040000Y-71470000D01*
X146720000Y-73440000D02*
X148040000Y-72120000D01*
X145670000Y-72340000D02*
X145670000Y-70990000D01*
X145670000Y-72340000D02*
X145670000Y-73440000D01*
X145670000Y-73440000D02*
X144580000Y-73440000D01*
X143000000Y-71845000D02*
X144580000Y-73440000D01*
%TD*%
M02*
